HIERARCHY
ROOT Hips
{
	OFFSET 0.00000 0.00000 0.00000
	CHANNELS 6 Xposition Yposition Zposition Zrotation Yrotation Xrotation 
	JOINT LHipJoint
	{
		OFFSET 0 0 0
		CHANNELS 3 Zrotation Yrotation Xrotation
		JOINT LeftUpLeg
		{
			OFFSET 1.55766 -1.60504 1.11378
			CHANNELS 3 Zrotation Yrotation Xrotation
			JOINT LeftLeg
			{
				OFFSET 2.29047 -6.29302 0.00000
				CHANNELS 3 Zrotation Yrotation Xrotation
				JOINT LeftFoot
				{
					OFFSET 2.52265 -6.93093 0.00000
					CHANNELS 3 Zrotation Yrotation Xrotation
					JOINT LeftToeBase
					{
						OFFSET 0.17633 -0.48446 2.02656
						CHANNELS 3 Zrotation Yrotation Xrotation
						End Site
						{
							OFFSET 0.00000 -0.00000 1.04989
						}
					}
				}
			}
		}
	}
	JOINT RHipJoint
	{
		OFFSET 0 0 0
		CHANNELS 3 Zrotation Yrotation Xrotation
		JOINT RightUpLeg
		{
			OFFSET -1.48599 -1.60504 1.11378
			CHANNELS 3 Zrotation Yrotation Xrotation
			JOINT RightLeg
			{
				OFFSET -2.27280 -6.24448 0.00000
				CHANNELS 3 Zrotation Yrotation Xrotation
				JOINT RightFoot
				{
					OFFSET -2.50834 -6.89161 0.00000
					CHANNELS 3 Zrotation Yrotation Xrotation
					JOINT RightToeBase
					{
						OFFSET -0.26967 -0.74090 2.08741
						CHANNELS 3 Zrotation Yrotation Xrotation
						End Site
						{
							OFFSET -0.00000 -0.00000 1.10614
						}
					}
				}
			}
		}
	}
	JOINT LowerBack
	{
		OFFSET 0 0 0
		CHANNELS 3 Zrotation Yrotation Xrotation
		JOINT Spine
		{
			OFFSET 0.06481 2.02437 -0.08472
			CHANNELS 3 Zrotation Yrotation Xrotation
			JOINT Spine1
			{
				OFFSET 0.00015 1.96711 0.18069
				CHANNELS 3 Zrotation Yrotation Xrotation
				JOINT Neck
				{
					OFFSET 0 0 0
					CHANNELS 3 Zrotation Yrotation Xrotation
					JOINT Neck1
					{
						OFFSET -0.29961 1.68293 -0.13041
						CHANNELS 3 Zrotation Yrotation Xrotation
						JOINT Head
						{
							OFFSET 0.59697 1.61501 -0.14669
							CHANNELS 3 Zrotation Yrotation Xrotation
							End Site
							{
								OFFSET 0.22973 1.74906 -0.10148
							}
						}
					}
				}
				JOINT LeftShoulder
				{
					OFFSET 0 0 0
					CHANNELS 3 Zrotation Yrotation Xrotation
					JOINT LeftArm
					{
						OFFSET 3.37968 1.02893 0.31147
						CHANNELS 3 Zrotation Yrotation Xrotation
						JOINT LeftForeArm
						{
							OFFSET 5.19807 -0.00000 -0.00000
							CHANNELS 3 Zrotation Yrotation Xrotation
							JOINT LeftHand
							{
								OFFSET 3.09370 -0.00000 -0.00000
								CHANNELS 3 Zrotation Yrotation Xrotation
								JOINT LeftFingerBase
								{
									OFFSET 0 0 0
									CHANNELS 3 Zrotation Yrotation Xrotation
									JOINT LeftHandIndex1
									{
										OFFSET 0.67263 -0.00000 -0.00000
										CHANNELS 3 Zrotation Yrotation Xrotation
										End Site
										{
											OFFSET 0.54229 -0.00000 -0.00000
										}
									}
								}
								JOINT LThumb
								{
									OFFSET 0 0 0
									CHANNELS 3 Zrotation Yrotation Xrotation
									End Site
									{
										OFFSET 0.55057 -0.00000 0.55057
									}
								}
							}
						}
					}
				}
				JOINT RightShoulder
				{
					OFFSET 0 0 0
					CHANNELS 3 Zrotation Yrotation Xrotation
					JOINT RightArm
					{
						OFFSET -3.38254 0.96355 -0.16120
						CHANNELS 3 Zrotation Yrotation Xrotation
						JOINT RightForeArm
						{
							OFFSET -5.45222 -0.00000 -0.00000
							CHANNELS 3 Zrotation Yrotation Xrotation
							JOINT RightHand
							{
								OFFSET -3.01284 -0.00000 -0.00000
								CHANNELS 3 Zrotation Yrotation Xrotation
								JOINT RightFingerBase
								{
									OFFSET 0 0 0
									CHANNELS 3 Zrotation Yrotation Xrotation
									JOINT RightHandIndex1
									{
										OFFSET -0.62230 -0.00000 -0.00000
										CHANNELS 3 Zrotation Yrotation Xrotation
										End Site
										{
											OFFSET -0.50171 -0.00000 -0.00000
										}
									}
								}
								JOINT RThumb
								{
									OFFSET 0 0 0
									CHANNELS 3 Zrotation Yrotation Xrotation
									End Site
									{
										OFFSET -0.50937 -0.00000 0.50937
									}
								}
							}
						}
					}
				}
			}
		}
	}
}
MOTION
Frames: 6
Frame Time: .0083333
4.9061 15.9489 18.5897 -2.5880 1.7711 10.8593 0.0000 0.0000 0.0000 -19.6460 3.1179 3.0049 0.1535 2.5244 6.9574 0.9950 -7.6454 -17.8378 1.1305 -6.7531 -18.9859 0.0000 0.0000 0.0000 15.6371 21.8346 -31.7089 -2.6440 -10.0951 29.2854 0.8790 18.2588 -1.9934 -1.7867 8.4069 -23.9569 1.0714 0.5128 -6.8843 0.4840 0.6722 -8.2675 -0.0800 0.2985 -4.7184 -31.1641 -9.2404 18.7181 43.6433 -17.1489 -12.2920 23.6834 -11.0171 1.1889 -0.0000 -0.0000 0.0000 -85.0039 10.4383 46.8979 63.5834 -57.1916 -37.3382 -0.0000 0.0000 -51.0409 31.5779 -16.1553 -9.7053 -7.1250 0.0000 -0.0000 2.5280 11.2143 -1.9901 -0.0000 -0.0000 0.0000 89.1378 -3.4248 40.7735 -45.1351 50.8345 -22.3435 0.0000 -0.0000 -13.0262 -8.3083 -12.0052 1.7398 7.1250 -0.0000 -0.0000 16.7640 -41.5003 1.4940
4.9002 15.9434 18.5991 -2.5578 1.7816 10.8419 0.0000 0.0000 0.0000 -19.6468 3.0643 3.0349 0.1573 2.5554 7.0432 1.0058 -7.6003 -17.9306 1.1346 -6.7650 -19.0210 0.0000 0.0000 0.0000 15.5951 21.9671 -31.7399 -2.6827 -10.1627 29.5052 0.8575 18.1339 -2.1550 -1.7880 8.4098 -23.9658 1.0517 0.5033 -6.9584 0.4716 0.6590 -8.2964 -0.0816 0.2926 -4.7081 -31.1514 -9.2572 18.7227 43.6759 -17.1582 -12.3638 23.7036 -11.0261 1.1787 -0.0000 -0.0000 0.0000 -84.9941 10.1602 46.9450 63.9461 -57.2729 -37.6432 -0.0000 0.0000 -51.1245 31.7849 -16.1984 -9.8074 -7.1250 0.0000 -0.0000 2.6584 11.1278 -2.0977 -0.0000 -0.0000 0.0000 89.1231 -3.2672 40.6025 -45.5594 51.0396 -22.6729 0.0000 -0.0000 -13.2736 -8.1390 -12.0177 1.7057 7.1250 -0.0000 -0.0000 16.9129 -41.4966 1.5097
4.8944 15.9379 18.6092 -2.5196 1.8067 10.8247 0.0000 0.0000 0.0000 -19.6527 2.9942 3.0660 0.1616 2.5904 7.1403 1.0175 -7.5551 -18.0310 1.1399 -6.7803 -19.0661 0.0000 0.0000 0.0000 15.5489 22.0734 -31.7775 -2.7228 -10.2322 29.7318 0.8372 18.0204 -2.3193 -1.7868 8.4071 -23.9575 1.0304 0.4895 -7.0360 0.4569 0.6400 -8.3233 -0.0849 0.2838 -4.6936 -31.1413 -9.2754 18.7254 43.7068 -17.1688 -12.4397 23.7222 -11.0354 1.1686 -0.0000 -0.0000 0.0000 -84.9830 9.8646 47.0199 64.3092 -57.3530 -37.9488 -0.0000 0.0000 -51.2596 31.9836 -16.2193 -9.8942 -7.1250 0.0000 -0.0000 2.7861 11.0678 -2.2021 -0.0000 -0.0000 0.0000 89.1092 -3.0878 40.4098 -45.9813 51.2402 -23.0014 0.0000 -0.0000 -13.5223 -7.9391 -12.0712 1.6705 7.1250 -0.0000 -0.0000 17.0998 -41.5294 1.5132
4.8881 15.9321 18.6198 -2.4808 1.8365 10.8120 0.0000 0.0000 0.0000 -19.6560 2.9172 3.0927 0.1662 2.6267 7.2410 1.0292 -7.5116 -18.1311 1.1451 -6.7951 -19.1097 0.0000 0.0000 0.0000 15.5019 22.1780 -31.8245 -2.7643 -10.3033 29.9647 0.8170 17.9076 -2.4843 -1.7837 8.4003 -23.9367 1.0042 0.4726 -7.1113 0.4464 0.6174 -8.3518 -0.0812 0.2735 -4.6823 -31.1397 -9.2929 18.7286 43.7341 -17.1791 -12.5225 23.7407 -11.0440 1.1569 0.0000 0.0000 0.0000 -84.9785 9.5604 47.1091 64.6822 -57.4337 -38.2630 -0.0000 0.0000 -51.4422 32.1530 -16.2322 -9.9657 -7.1250 0.0000 -0.0000 2.8954 11.0218 -2.2915 0.0000 0.0000 0.0000 89.0886 -2.8774 40.2086 -46.3809 51.4273 -23.3134 0.0000 -0.0000 -13.7893 -7.7159 -12.1714 1.6362 7.1250 -0.0000 -0.0000 17.3203 -41.6049 1.5007
4.8818 15.9264 18.6314 -2.4442 1.8783 10.7983 0.0000 0.0000 0.0000 -19.6547 2.8309 3.1268 0.1708 2.6624 7.3402 1.0409 -7.4683 -18.2311 1.1507 -6.8111 -19.1569 0.0000 0.0000 0.0000 15.4627 22.2581 -31.8741 -2.8070 -10.3759 30.2026 0.7979 17.8094 -2.6554 -1.7788 8.3892 -23.9027 0.9845 0.4504 -7.1888 0.4396 0.5875 -8.3813 -0.0776 0.2594 -4.6710 -31.1452 -9.3056 18.7361 43.7557 -17.1845 -12.6084 23.7594 -11.0497 1.1412 0.0000 0.0000 0.0000 -84.9785 9.2418 47.2080 65.0502 -57.5120 -38.5733 -0.0000 0.0000 -51.6690 32.2807 -16.2242 -10.0094 -7.1250 0.0000 -0.0000 2.9801 11.0074 -2.3595 0.0000 0.0000 0.0000 89.0628 -2.6454 40.0023 -46.7627 51.6034 -23.6123 0.0000 -0.0000 -14.0755 -7.4817 -12.3174 1.6048 7.1250 -0.0000 -0.0000 17.5642 -41.7230 1.4703
4.8750 15.9202 18.6439 -2.4061 1.9225 10.7828 0.0000 0.0000 0.0000 -19.6510 2.7412 3.1602 0.1759 2.7018 7.4495 1.0532 -7.4280 -18.3361 1.1561 -6.8266 -19.2028 0.0000 0.0000 0.0000 15.4240 22.3402 -31.9203 -2.8506 -10.4491 30.4437 0.7780 17.7070 -2.8326 -1.7749 8.3806 -23.8761 0.9574 0.4242 -7.2500 0.4382 0.5530 -8.4180 -0.0646 0.2435 -4.6765 -31.1619 -9.3110 18.7454 43.7741 -17.1825 -12.6943 23.7820 -11.0510 1.1224 0.0000 -0.0000 0.0000 -84.9900 8.9116 47.3026 65.3959 -57.5843 -38.8651 -0.0000 0.0000 -51.9149 32.3433 -16.1999 -10.0188 -7.1250 0.0000 -0.0000 3.0244 11.0236 -2.3937 0.0000 -0.0000 0.0000 89.0212 -2.3835 39.8162 -47.1126 51.7624 -23.8868 0.0000 -0.0000 -14.4177 -7.2632 -12.5358 1.5846 7.1250 -0.0000 -0.0000 17.8170 -41.9113 1.4070
